<?xml version="1.0" encoding="utf-8" ?>
<svg baseProfile="full" height="1254" version="1.1" viewBox="0 0 1254 1254" width="1254" xmlns="http://www.w3.org/2000/svg" xmlns:ev="http://www.w3.org/2001/xml-events" xmlns:xlink="http://www.w3.org/1999/xlink"><defs /><path d="M 620 959 L 629 973 L 619 987 L 623 987 L 631 975 L 638 986 L 643 987 L 633 973 L 642 959 L 639 959 L 631 970 L 626 962 Z" fill="#ff6a00" /><path d="M 768 868 L 752 902 L 768 892 L 783 901 Z" fill="#ff6a00" /><path d="M 796 371 L 739 412 L 687 442 L 633 468 L 543 504 L 512 519 L 488 536 L 476 550 L 468 568 L 466 588 L 469 606 L 478 626 L 516 676 L 590 751 L 601 752 L 653 702 L 689 660 L 722 610 L 741 569 L 753 530 L 759 494 L 760 450 L 710 493 L 702 535 L 693 559 L 678 589 L 651 630 L 627 659 L 598 689 L 585 678 L 554 644 L 531 612 L 526 594 L 531 577 L 546 561 L 559 551 L 662 486 L 717 447 L 753 417 Z" fill="#ff6a00" /><path d="M 718 353 L 688 325 L 659 308 L 634 299 L 605 294 L 569 295 L 533 304 L 504 318 L 479 336 L 455 361 L 443 379 L 428 415 L 422 452 L 423 476 L 430 512 L 441 543 L 457 518 L 481 500 L 473 469 L 473 441 L 483 407 L 497 385 L 513 369 L 530 357 L 547 349 L 575 342 L 604 342 L 623 346 L 641 353 L 667 370 L 685 389 L 694 403 L 736 379 Z" fill="#ff6a00" /><path d="M 913 243 L 905 243 L 896 248 L 871 274 L 812 264 L 805 270 L 807 274 L 851 294 L 827 327 L 806 324 L 801 329 L 820 338 L 812 347 L 816 351 L 825 343 L 835 362 L 840 357 L 836 335 L 865 308 L 889 351 L 896 347 L 897 340 L 886 285 L 910 258 L 913 251 Z" fill="#ff6a00" /></svg>